<svg xmlns="http://www.w3.org/2000/svg" viewBox="0 0 100 100">
  <!-- Magnifying glass frame -->
  <circle cx="40" cy="40" r="28" fill="none" stroke="#2d2d2d" stroke-width="4"/>
  <!-- Magnifying glass handle -->
  <path d="M 60 60 L 75 75" stroke="#2d2d2d" stroke-width="4" stroke-linecap="round"/>
  
  <!-- Brain inside magnifying glass -->
  <g transform="translate(28, 28)">
    <path d="M 12 8 Q 8 12 8 18 Q 8 24 12 28 Q 16 32 20 30 Q 18 26 18 22 Q 18 18 20 16 Q 18 12 12 8 Z" fill="#3b82f6" stroke="#60a5fa" stroke-width="0.5"/>
    <path d="M 20 16 Q 22 18 22 22 Q 22 26 20 30 Q 24 32 28 28 Q 32 24 32 18 Q 32 12 28 8 Q 24 12 20 16 Z" fill="#3b82f6" stroke="#60a5fa" stroke-width="0.5"/>
    <path d="M 16 20 Q 14 22 14 24" stroke="#60a5fa" stroke-width="0.8" fill="none"/>
    <path d="M 24 20 Q 26 22 26 24" stroke="#60a5fa" stroke-width="0.8" fill="none"/>
  </g>
  
  <!-- Upward arrow with gradient -->
  <defs>
    <linearGradient id="arrowGradient" x1="0%" y1="0%" x2="100%" y2="100%">
      <stop offset="0%" style="stop-color:#3b82f6;stop-opacity:1" />
      <stop offset="100%" style="stop-color:#10b981;stop-opacity:1" />
    </linearGradient>
  </defs>
  <path d="M 65 30 L 65 55 L 55 55 L 60 60 L 75 60 L 80 55 L 75 55 L 75 30 Z" fill="url(#arrowGradient)"/>
  <polygon points="75,30 85,30 80,20" fill="url(#arrowGradient)"/>
</svg>


